<?xml version="1.0" standalone="no"?>
<!DOCTYPE svg PUBLIC "-//W3C//DTD SVG 20010904//EN"
 "http://www.w3.org/TR/2001/REC-SVG-20010904/DTD/svg10.dtd">
<svg version="1.0" xmlns="http://www.w3.org/2000/svg"
 width="500.000000pt" height="500.000000pt" viewBox="0 0 500.000000 500.000000"
 preserveAspectRatio="xMidYMid meet">
<metadata>
Created by potrace 1.11, written by Peter Selinger 2001-2013
</metadata>
<g transform="translate(0.000000,500.000000) scale(0.100000,-0.100000)"
fill="#000000" stroke="none">
<path d="M2383 3575 c-178 -41 -334 -200 -371 -380 -13 -60 -9 -188 8 -241 26
-84 67 -151 130 -214 106 -106 225 -152 375 -146 134 6 232 51 334 154 99 101
142 215 136 362 -7 172 -99 328 -246 413 -97 57 -251 79 -366 52z"/>
<path d="M1421 3218 c-67 -12 -162 -63 -216 -116 -78 -78 -116 -171 -118 -285
-1 -116 36 -208 116 -290 83 -85 206 -136 317 -131 104 5 227 66 293 146 l35
42 -39 57 c-63 92 -116 222 -134 329 -4 19 -6 77 -7 128 0 86 -2 94 -22 102
-60 24 -150 31 -225 18z"/>
<path d="M3425 3218 c-93 -20 -94 -21 -94 -106 1 -181 -44 -330 -141 -473
l-41 -60 58 -58 c58 -58 132 -100 203 -116 48 -11 166 -8 190 5 11 6 20 8 20
5 0 -9 103 46 142 77 91 71 149 193 150 313 1 149 -62 270 -187 354 -76 53
-210 79 -300 59z"/>
<path d="M2408 2255 c-1 -1 -34 -6 -73 -9 -97 -9 -301 -57 -419 -100 -184 -66
-334 -173 -387 -276 -22 -42 -24 -59 -27 -246 l-4 -201 1002 0 1002 0 -4 201
c-4 221 -8 240 -79 320 -97 111 -342 226 -579 271 -30 6 -123 22 -169 30 -38
6 -257 15 -263 10z"/>
<path d="M1145 2066 c-191 -53 -332 -123 -407 -202 -57 -61 -69 -109 -70 -282
l-1 -157 246 -1 c136 -1 248 1 248 5 1 3 3 94 4 201 3 219 13 278 70 391 34
67 34 69 12 68 -12 0 -58 -11 -102 -23z"/>
<path d="M3737 2073 c3 -10 14 -30 24 -44 10 -14 30 -62 44 -105 25 -74 27
-92 28 -289 l2 -210 248 -1 247 -1 1 51 c2 115 -2 253 -7 281 -12 56 -65 121
-140 173 -88 60 -303 142 -417 158 -33 5 -36 4 -30 -13z"/>
</g>
</svg>
