<?xml version="1.0"?>
<svg xmlns="http://www.w3.org/2000/svg" xmlns:xlink="http://www.w3.org/1999/xlink" version="1.1" id="Capa_1" x="0px" y="0px" width="512px" height="512px" viewBox="0 0 99.004 99.004" style="enable-background:new 0 0 99.004 99.004;" xml:space="preserve" class=""><g><g>
	<g>
		<path d="M49.502,0.002C22.207,0.002,0,22.209,0,49.504c0,27.293,22.207,49.498,49.502,49.498s49.502-22.203,49.502-49.498    C99.004,22.207,76.797,0.002,49.502,0.002z M49.502,95.648c-25.444,0-46.145-20.701-46.145-46.146    c0-25.444,20.701-46.145,46.145-46.145c25.443,0,46.146,20.701,46.146,46.145C95.646,74.947,74.945,95.648,49.502,95.648z" data-original="#000000" class="active-path" data-old_color="#000000" fill="#FFFFFF"/>
		<circle cx="31.471" cy="49.207" r="3.715" data-original="#000000" class="active-path" data-old_color="#000000" fill="#FFFFFF"/>
		<path d="M50.309,45.778c-2.047,0-3.716,1.67-3.716,3.718c0,2.045,1.668,3.713,3.716,3.713c2.051,0,3.715-1.663,3.715-3.713    C54.023,47.446,52.355,45.778,50.309,45.778z" data-original="#000000" class="active-path" data-old_color="#000000" fill="#FFFFFF"/>
		<circle cx="69.146" cy="49.493" r="3.716" data-original="#000000" class="active-path" data-old_color="#000000" fill="#FFFFFF"/>
	</g>
</g></g> </svg>
