<?xml version="1.0" ?>
<svg data-name="Layer 1" id="Layer_1" viewBox="0 0 508.33 508.36" xmlns="http://www.w3.org/2000/svg">
    <defs>
        <style>.cls-1{fill:#1da1f2;fill-rule:evenodd;}.cls-2{fill:#fff;}</style>
    </defs>
    <title/>
    <path class="cls-1"
          d="M485,29.72c11.45,15.13,16.61,40.21,19.15,70.7,3.36,45.5,4.71,100.1,6,156.52-1.67,57.47-2.35,115.43-6,156.52-2.88,31.54-9,52.66-19.22,65.47-13,12.79-37.94,23.59-73.5,26.15-43.25,3.69-96.61,3.65-155.48,5.1-65.44-1.12-109.82-.64-156.38-5.08-36.32-2.52-60.08-13.19-74.7-26.07-10.83-14.54-14-30-17-66.24-3.75-41.85-4.58-98.56-6-155.54C4,200.57,4.13,143.44,7.9,100.74,10.43,67.05,14.42,44.4,24.65,30,39,17.77,63.48,11.69,100,8.69c50-5.85,102.06-7,155.88-6.87,55.39.09,108.56,1.67,156,6.34,32,2.56,58.48,8.07,73.07,21.56Z"
          transform="translate(-1.83 -1.82)"/>
    <path class="cls-2"
          d="M400.43,158.33A122.64,122.64,0,0,1,365,168a61.75,61.75,0,0,0,27.1-34.1,123.38,123.38,0,0,1-39.14,15,61.69,61.69,0,0,0-105,56.22,175,175,0,0,1-127-64.4A61.71,61.71,0,0,0,140,223a61.46,61.46,0,0,1-27.92-7.71c0,.26,0,.52,0,.78a61.68,61.68,0,0,0,49.45,60.44,62,62,0,0,1-16.24,2.16,61.07,61.07,0,0,1-11.6-1.11,61.7,61.7,0,0,0,57.58,42.8A124.37,124.37,0,0,1,100,345.88a174.42,174.42,0,0,0,94.48,27.69c113.38,0,175.37-93.92,175.37-175.37q0-4-.17-8A124.84,124.84,0,0,0,400.43,158.33Z"
          transform="translate(-1.83 -1.82)"/>
</svg>