<?xml version="1.0" ?>
<svg data-name="Layer 1" id="Layer_1" viewBox="0 0 508.33 508.36" xmlns="http://www.w3.org/2000/svg">
    <defs>
        <style>.cls-1{fill:#1e9e5e;fill-rule:evenodd;}.cls-2{fill:#fff;}</style>
    </defs>
    <title/>
    <path class="cls-1"
          d="M485,29.72c11.45,15.13,16.61,40.21,19.15,70.7,3.36,45.5,4.71,100.1,6,156.52-1.67,57.47-2.35,115.43-6,156.52-2.88,31.54-9,52.66-19.22,65.47-13,12.79-37.94,23.59-73.5,26.15-43.25,3.69-96.61,3.65-155.48,5.1-65.44-1.12-109.82-.64-156.38-5.08-36.32-2.52-60.08-13.19-74.7-26.07-10.83-14.54-14-30-17-66.24-3.75-41.85-4.58-98.56-6-155.54C4,200.57,4.13,143.44,7.9,100.74,10.43,67.05,14.42,44.4,24.65,30,39,17.77,63.48,11.69,100,8.69c50-5.85,102.06-7,155.88-6.87,55.39.09,108.56,1.67,156,6.34,32,2.56,58.48,8.07,73.07,21.56Z"
          transform="translate(-1.83 -1.82)"/>
    <path class="cls-2"
          d="M99.7,219.54v-1.2c.53,0,1.33.13,1.73-.27,15.17-9.18,30.34-18.23,45.24-27.68,1.73-1.06,2.66-4.39,2.79-6.79.27-16.5.4-32.87,0-49.37-.13-5.59,1.33-7.72,7.19-7.45,9.18.4,18.5,0,27.81.13,13.57.13,11.18-1.2,11.31,11.58.13,6.79,0,13.71,0,21.82,3.46-2,5.46-3.06,7.32-4.13,14-8.52,28.08-17,42-25.82,3.59-2.26,6.25-2.26,9.85,0q54.89,33.73,109.91,67.2c11.31,6.92,22.75,13.84,34.6,21.16-8.25,13.31-16.1,26.08-24.09,39.12-7.19-4.26-13.71-8.12-21.69-12.91v8.78c0,36.86-.13,73.59.13,110.45,0,5.19-.93,7.05-6.65,7.05-63.74-.27-127.61-.13-191.35,0-5.19,0-6.52-1.6-6.52-6.65.13-37,.13-74.12.13-111.11v-8.65c-8.92,5.46-16.23,9.85-24.09,14.64-4.66-7.58-8.78-14.37-13.17-21.16C108.22,231.91,104,225.79,99.7,219.54Z"
          transform="translate(-1.83 -1.82)"/>
</svg>